# xmcd
#
# Track frame offsets: 
#        150
#        16462
#        35045
#        56256
#        73646
#        92036
#        110388
#        124274
#        144530
#        165463
#        182705
#        199516
#        215760
#        232266
#        247269
#        265770
#        281686
#        297211
#        315912
#        331591
#
# Disc length: 4639 seconds
#
# Revision: 2
# Processed by: cddbd v1.5.2PL0 Copyright (c) Steve Scherf et al.
# Submitted via: ExactAudioCopy v1.0b3
#
DISCID=2b121d14
DTITLE=Various Artists  - Soul Weekender Anthems
DYEAR=1998
DGENRE=Soul
TTITLE0=McFadden and Whitehead - Ain't No Stopping Us Now
TTITLE1=Fatback Band - I Found Lovin'
TTITLE2=Patrice Rushen - Forget Me Nots
TTITLE3=Gwen McCrae - All This Love That I'm Givin'
TTITLE4=Chaka Khan - I'm Every Women
TTITLE5=Steve Arrington - Dancin' In The Key Of Life
TTITLE6=Quincy Jones - Stuff Like That
TTITLE7=Maze - Twilight
TTITLE8=Players Association - Turn The Music Up
TTITLE9=Bobby Thurston - Check Out The Groove
TTITLE10=The Whispers - It's A Love Thing
TTITLE11=Gene Chandler - Get Down
TTITLE12=Change - The Glow Of Love
TTITLE13=Ashford and Simpson - Solid
TTITLE14=Brothers Johnson - Stomp
TTITLE15=Edwin Starr - Contact
TTITLE16=Billy Paul - Bring The Family Back
TTITLE17=Colonel Abrahams - Trapped
TTITLE18=Al Hudson and The Partners - You Can Do It
TTITLE19=Loose Ends - Hangin' On A String (Contemplating)
EXTD=
EXTT0=
EXTT1=
EXTT2=
EXTT3=
EXTT4=
EXTT5=
EXTT6=
EXTT7=
EXTT8=
EXTT9=
EXTT10=
EXTT11=
EXTT12=
EXTT13=
EXTT14=
EXTT15=
EXTT16=
EXTT17=
EXTT18=
EXTT19=
PLAYORDER=
